<?xml version="1.0" encoding="utf-8"?>
<!-- Generator: Adobe Illustrator 27.6.1, SVG Export Plug-In . SVG Version: 6.00 Build 0)  -->
<svg version="1.1" id="Layer_1" xmlns="http://www.w3.org/2000/svg" xmlns:xlink="http://www.w3.org/1999/xlink" x="0px" y="0px"
	 width="1451.7px" height="886.9px" viewBox="0 0 1451.7 886.9" style="enable-background:new 0 0 1451.7 886.9;"
	 xml:space="preserve">
<style type="text/css">
	.st0{enable-background:new    ;}
	.st1{fill:#FFFFFF;}
	.st2{fill:#143A39;}
	.st3{fill:#B3B4B4;}
</style>
<g>
	<g class="st0">
		<path class="st1" d="M507.5,419.6v177.6l-41,41h-68.3l-41-41V419.6h54.6v170.8h41V419.6H507.5z"/>
		<path class="st1" d="M685.1,556.2v41l-41,41h-68.3l-41-41V460.6l41-41h68.3l41,41v41h-54.6v-34.2h-41v122.9h41v-34.2h54.6V556.2z"
			/>
		<path class="st1" d="M814.9,638.1l-6.8-47.8h-41l-6.8,47.8h-54.6l41-218.6h82l41,218.6H814.9z M774,549.3h26.9l-13.3-81.5
			L774,549.3z"/>
		<path class="st1" d="M931.5,549.3l-41.2-41v-47.8l41-41h68.3l41,41v27.3h-54.1v-20.5H945v41h55l40.7,41v47.8l-41,41h-68.3l-41-41
			v-27.3H945v20.5h41.5v-41H931.5z"/>
	</g>
	<path class="st2" d="M6.3,761.2c-1.4-2.9-2.6-7.3-3.7-13.1C3.7,752.5,4.7,756.9,6.3,761.2z"/>
	<path class="st3" d="M822.6,792.4C465,916,133.4,917.1,31.5,803.4c-11.3-12.6-19.9-26.6-25.3-42.2c-1.5-4.3-2.6-8.7-3.7-13.1
		c-1.4-9.3-2.5-22.1-2-38.5c0.9-39.9,10-100.5,38.7-180.1c28.5-79.6,84-250.8,162.1-366.7l45.6,20.8L281,199
		c0,0-76.6,163.2-110.6,273.4c-29.7,96.4-47.3,200.8-9.7,253.9c0.2,0.2,0.3,0.5,0.5,0.6v0.2c7.3,10.8,16.6,20.4,28,29.1
		c99.4,75.2,350.7,69.1,620-24c320.6-111,545.1-302.9,501.4-428.9c-43.5-126-338.7-138.4-659.2-27.6c-228,79-407.5,198.9-476.3,307
		c7.2-43.8,21-93.3,37.7-142C321.3,362.9,465,289.2,629,232.6c397.4-137.5,762.8-123.6,816.3,31.1
		C1498.6,418.1,1219.9,655,822.6,792.4z"/>
	<path class="st3" d="M1.5,740.2c-1.5-10-2-20.1-1.1-30.6C0.1,721.8,0.6,731.9,1.5,740.2z"/>
	<path class="st3" d="M2.6,748.1c-0.4-2.4-0.8-5.1-1.1-7.9C1.9,742.8,2,745.5,2.6,748.1z"/>
	<polygon class="st3" points="319.6,0 128.6,137.4 343.1,234.2 	"/>
</g>
</svg>
